# xmcd
#
# Track frame offsets: 
#        150
#        8581
#        26277
#        46123
#        69774
#        84533
#        97410
#        110871
#        136482
#        158200
#        174278
#        191790
#        207903
#        229960
#        245880
#        264153
#        293673
#        308347
#
# Disc length: 4299 seconds
#
# Revision: 0
# Processed by: cddbd v1.5.2PL0 Copyright (c) Steve Scherf et al.
# Submitted via: ExactAudioCopy v1.0b3
#
DISCID=f010c912
DTITLE=Various Artist - this is...
DYEAR=2008
DGENRE=
TTITLE0=DJ JIN - this is...
TTITLE1=COMA-CHI,DABO,YUTAKA from Full Of Harmony,KOHEI JAPAN - Unstop
TTITLE1=pable Train
TTITLE2=YA-KYIM and May J. - Girls Spacy Healin'
TTITLE3=ICE BAHN and YOUTH - 韻トロデュース
TTITLE4=韻踏合組合 and SHINGO☆西成 - 踏みだおれ
TTITLE5=DJ Mitsu the Beats - Untitled NO.9
TTITLE6=DJ TATSUTA feat. MCU - SUGAMO-B 2008 REMIX
TTITLE7=Full Of Harmony,瘋癲FU-TEN - LALALA Friday
TTITLE8=FAT LOOP - A Roller Skating Jam Named "Saturdays" ROCK-Tee's m
TTITLE8=o'fat REMIX
TTITLE9=Mr.BEATS a.k.a DJ CELORY feat.KIN DA SHER ROCK - LIVE THE LIFE
TTITLE10=CHANNEL,K.I.N,CUEZERO - ガンショット
TTITLE11=NUDY LINE - Vanishing Point
TTITLE12=TR-908 - FAKEASS feat. KREVA
TTITLE13=さかいゆう - 禁断の果実
TTITLE14=The New Classics - Love@1st site feat.RIEKO,SIHONO
TTITLE15=ROCK-TEE feat.椎名純平  - Brazilian Rhyme
TTITLE16=Breakthrough - Head Over Heels feat.Mika Arisaka
TTITLE17=ROCK-Tee - P.E.A.C.E
EXTD=
EXTT0=
EXTT1=
EXTT2=
EXTT3=
EXTT4=
EXTT5=
EXTT6=
EXTT7=
EXTT8=
EXTT9=
EXTT10=
EXTT11=
EXTT12=
EXTT13=
EXTT14=
EXTT15=
EXTT16=
EXTT17=
PLAYORDER=
